<svg width="152" height="152" viewBox="0 0 152 152" fill="none" xmlns="http://www.w3.org/2000/svg">
<path d="M85.2318 85.2318L152 152V-2.41146e-07H2.41146e-07L68.019 68.019C70.0414 68.6239 71.6986 67.2432 71.6986 67.2432L76.7308 62.2111C68.0695 56.6949 71.5266 50.4023 71.5266 50.4023C73.4118 46.3117 72.4655 44.1075 72.4655 44.1075C71.6752 40.172 74.1956 42.6924 74.1956 42.6924C76.5588 45.3701 75.4602 48.9892 75.4602 48.9892C73.7345 55.4407 78.9304 57.8061 80.8197 58.4373C82.8645 57.0225 84.9105 56.8669 86.3274 57.3403C80.8126 50.2529 79.3907 44.1135 80.9603 39.0783L81.7454 37.0329C82.8451 34.673 84.7319 32.4712 87.0907 30.1124C89.8023 27.2459 93.5286 25.5547 97.4744 25.3996C97.7884 24.4556 99.6738 20.6798 105.18 18.3237C105.18 18.3237 108.172 20.0576 109.911 29.0304C115.491 32.2009 120.158 36.7594 123.459 42.263C132.117 44.0018 133.693 46.8362 133.693 46.8362C131.808 51.5563 128.82 53.5998 127.246 54.228C127.25 58.3201 125.837 62.2537 122.534 65.556C120.176 67.9148 117.974 69.8016 115.771 71.0588L113.726 72.1588C108.691 74.0431 103.496 72.9369 95.9366 66.9495C96.253 68.8384 96.0979 71.5139 93.2673 74.3445L86.0336 81.5782C86.0336 81.5782 84.5147 83.0972 85.2318 85.2318Z" fill="#F9C80E"/>
</svg>
