<svg width="96" height="96" viewBox="0 0 96 96" fill="none" xmlns="http://www.w3.org/2000/svg">
<path d="M96 48C96 74.5097 74.5097 96 48 96C21.4903 96 0 74.5097 0 48C0 21.4903 21.4903 0 48 0C74.5097 0 96 21.4903 96 48Z" fill="black"/>
<path fill-rule="evenodd" clip-rule="evenodd" d="M48.177 23C50.9384 23 53.177 25.2386 53.177 28V43.0901H68C70.7614 43.0901 73 45.3287 73 48.0901C73 50.8515 70.7614 53.0901 68 53.0901H53.177V68C53.177 70.7614 50.9384 73 48.177 73C45.4156 73 43.177 70.7614 43.177 68V53.0901H28C25.2386 53.0901 23 50.8515 23 48.0901C23 45.3287 25.2386 43.0901 28 43.0901H43.177V28C43.177 25.2386 45.4156 23 48.177 23Z" fill="white"/>
</svg>
