<svg width="13" height="51" viewBox="0 0 13 51" fill="none" xmlns="http://www.w3.org/2000/svg">
<path d="M13 6.56436C13 10.1898 10.0899 13.1287 6.5 13.1287C2.91015 13.1287 0 10.1898 0 6.56436C0 2.93896 2.91015 0 6.5 0C10.0899 0 13 2.93896 13 6.56436Z" fill="white"/>
<path d="M13 25.5C13 29.2648 10.0899 32.3168 6.5 32.3168C2.91015 32.3168 0 29.2648 0 25.5C0 21.7352 2.91015 18.6832 6.5 18.6832C10.0899 18.6832 13 21.7352 13 25.5Z" fill="white"/>
<path d="M13 44.4356C13 48.061 10.0899 51 6.5 51C2.91015 51 0 48.061 0 44.4356C0 40.8103 2.91015 37.8713 6.5 37.8713C10.0899 37.8713 13 40.8103 13 44.4356Z" fill="white"/>
</svg>
